<?xml version="1.0" encoding="utf-8"?>
<!-- Generator: Adobe Illustrator 18.1.1, SVG Export Plug-In . SVG Version: 6.00 Build 0)  -->
<!DOCTYPE svg PUBLIC "-//W3C//DTD SVG 1.1//EN" "http://www.w3.org/Graphics/SVG/1.1/DTD/svg11.dtd">
<svg version="1.1" id="Layer_1" xmlns="http://www.w3.org/2000/svg" xmlns:xlink="http://www.w3.org/1999/xlink" x="0px" y="0px"
	 viewBox="137.4 -196 110.7 110.8" enable-background="new 137.4 -196 110.7 110.8" xml:space="preserve">
<g>
	<g>
		<g>
			<g>
				<path fill="#414141" d="M243.8-173.4c0,0,2.5,1.1,4.2-0.4l-6-6l-29,29l-12.5,58.3c0,0-14.9,2.4-36.5-19.1
					c-21.5-21.5-18.8-37.5-18.8-37.5l57.7-11.7l29-29l-6.1-6.1c-1.4,1.8-0.9,5-0.9,5l-24.9,24.9l-62.7,13.6c0,0-2,22.6,22.3,46.3
					c22.6,22,45,21,45,21l13.6-62.7L243.8-173.4z"/>
				<path fill="#414141" d="M168.7-116.2c15.4,14.9,27,16.9,27,16.9l8-34.4c0,0,0-0.2,0.1-0.4c0.1-1.5-0.2-6.6-9.3-8.8
					c-10.8-2.6-8.7-8.7-8.7-8.7l-18.9,4.1l-13.8,2.9C153.1-144.7,153.3-131.1,168.7-116.2z"/>
			</g>
		</g>
	</g>
</g>
</svg>
